# Made in Blockbench 4.1.4
mtllib pyramid_buildingblock_village.mtl

o cube
v 0.4781249999999999 0.978125 -0.478125
v 0.4781249999999999 0.021875 0.478125
v 0.4781249999999999 0.021875 -0.478125
v -0.4781249999999999 0.021875 0.478125
v -0.4781249999999999 0.021875 -0.478125
v 0.4500000000000002 1 -0.45
v 0.4500000000000002 0.95 -0.5
v 0.4500000000000002 0.05 -0.5
v -0.44999999999999996 0.05 -0.5
v -0.5 0.05 0.45
v -0.5 0.05 -0.45
v 0.4500000000000002 0.95 0.5
v 0.4500000000000002 0.05 0.5
v -0.44999999999999996 0.05 0.5
v 0.5 0.95 0.45
v 0.5 0.05 0.45
v 0.5 0.95 -0.45
v 0.5 0.05 -0.45
v 0.4500000000000002 0 0.45
v -0.44999999999999996 0 0.45
v 0.4500000000000002 0 -0.45
v -0.44999999999999996 0 -0.45
v 0.4781249999999999 0.978125 0.478125
v 0.4500000000000002 1 0.45
vt 0 0.671875
vt 0.21875 0.671875
vt 0.21875 0.453125
vt 0 0.453125
vt 0.453125 0.78125
vt 0.453125 1
vt 0.671875 1
vt 0.671875 0.78125
vt 0.22578125 0.53125
vt 0.45078125 0.53125
vt 0.4578125 0.515625
vt 0.21875 0.515625
vt 0.46875 0.29921875
vt 0.46875 0.52421875
vt 0.484375 0.53125
vt 0.484375 0.29218750000000004
vt 0.22578125 0.515625
vt 0.45078125 0.515625
vt 0.4578125 0.5
vt 0.21875 0.5
vt 0.49140625 0.53125
vt 0.71640625 0.53125
vt 0.7234375 0.515625
vt 0.484375 0.515625
vt 0.5 0.50859375
vt 0.5 0.28359375
vt 0.484375 0.27656250000000004
vt 0.484375 0.515625
vt 0.22578125 0.5
vt 0.45078125 0.5
vt 0.4578125 0.484375
vt 0.21875 0.484375
vt 0.73203125 0.5
vt 0.50703125 0.5
vt 0.5 0.515625
vt 0.7390625 0.515625
vt 0.5 0.26796875
vt 0.5 0.49296874999999996
vt 0.515625 0.5
vt 0.515625 0.26093750000000004
vt 0.22578125 0.484375
vt 0.45078125 0.484375
vt 0.4578125 0.46875
vt 0.21875 0.46875
vt 0.53125 0.49296874999999996
vt 0.53125 0.26796875
vt 0.515625 0.26093750000000004
vt 0.515625 0.5
vt 0.45078125 0.453125
vt 0.22578125 0.453125
vt 0.21875 0.46875
vt 0.4578125 0.46875
vt 0.76328125 0.484375
vt 0.53828125 0.484375
vt 0.53125 0.5
vt 0.7703125 0.5
vt 0.76328125 0.46875
vt 0.53828125 0.46875
vt 0.53125 0.484375
vt 0.7703125 0.484375
vt 0.76328125 0.453125
vt 0.53828125 0.453125
vt 0.53125 0.46875
vt 0.7703125 0.46875
vt 0.21875 1
vt 0.21875 0.671875
vt 0 0.671875
vt 0 1
vt 0.4668943198758573 0.671875
vt 0.45554604318778424 0.671875
vt 0.453125 0.6835243203888058
vt 0.7474246728059188 0.78125
vt 0.7564780803957696 0.5625
vt 0.7576738608739781 0.5512140178655405
vt 0.7469050206443337 0.546875
vt 0.453125 0.546875
vt 0.21875 1
vt 0.44375 0.775
vt 0.21875 0.775
vt 0.4668943198758573 0.5625
vt 0.45554604318778424 0.5625
vt 0.453125 0.5741493203888058
vt 0.7474246728059188 0.671875
vt 0.7564780803957696 0.546875
vt 0.7576738608739781 0.5355890178655405
vt 0.7469050206443337 0.53125
vt 0.453125 0.53125
vt 0.44375 0.540625
vt 0.21875 0.540625
vt 0.44375 0.765625
vn 1 0 0
vn 0 -1 0
vn 0.6139406135149237 0.7893522173763239 0
vn 0.6139406135149237 0 -0.7893522173763238
vn 0 -0.61394061351492 -0.7893522173763268
vn -0.7893522173763253 -0.613940613514922 0
vn 0.6139406135149237 0 0.7893522173763238
vn 0 -0.61394061351492 0.7893522173763268
vn 0.7893522173763259 0.6139406135149211 0
vn 0.7893522173763252 0 0.6139406135149218
vn 0.7893522173763253 -0.613940613514922 0
vn 0.7893522173763252 0 -0.6139406135149218
vn 0.613940613514924 -0.7893522173763236 0
vn 0 -0.7893522173763265 0.6139406135149204
vn -0.613940613514921 -0.7893522173763258 0
vn 0 -0.7893522173763265 -0.6139406135149204
vn -0.7071067811865475 0.7071067811865477 0
vn 0.6985354731356993 -0.15523010514126537 -0.6985354731357001
vn 0.1552301051412696 -0.6985354731356989 -0.6985354731356997
vn 0 0 1
vn -0.6985354731356993 0.15523010514126537 -0.6985354731357001
vn -0.1552301051412696 0.6985354731356989 -0.6985354731356997
vn 0 0 -1
usemtl m_0
f 17/1/1 15/2/1 16/3/1 18/4/1
f 21/5/2 19/6/2 20/7/2 22/8/2
f 6/9/3 24/10/3 23/11/3 1/12/3
f 8/13/4 7/14/4 1/15/4 3/16/4
f 9/17/5 8/18/5 3/19/5 5/20/5
f 10/21/6 11/22/6 5/23/6 4/24/6
f 12/25/7 13/26/7 2/27/7 23/28/7
f 13/29/8 14/30/8 4/31/8 2/32/8
f 15/33/9 17/34/9 1/35/9 23/36/9
f 16/37/10 15/38/10 23/39/10 2/40/10
f 18/41/11 16/42/11 2/43/11 3/44/11
f 17/45/12 18/46/12 3/47/12 1/48/12
f 19/49/13 21/50/13 3/51/13 2/52/13
f 20/53/14 19/54/14 2/55/14 4/56/14
f 22/57/15 20/58/15 4/59/15 5/60/15
f 21/61/16 22/62/16 5/63/16 3/64/16
f 6/65/17 11/66/17 10/67/17 24/68/17
f 14/69/18 4/70/18 10/71/18 24/72/18
f 24/73/19 23/74/19 12/75/19 14/76/19
f 12/77/20 14/78/20 13/79/20
f 9/80/21 5/81/21 11/82/21 6/83/21
f 6/84/22 1/85/22 7/86/22 9/87/22
f 8/88/23 9/89/23 7/90/23