# Made in Blockbench 4.1.4
mtllib cylinder_buildingblock_village.mtl

o cylinder
v 0.0001531654201334094 0.02800718674517011 0.4957312720612757
v -0.00009630761054952794 1.9713206843873683 0.49523814068157207
v 0.24769274304847802 0.02870560313301218 0.4288248979205393
v 0.2475356665081879 1.9713206851124196 0.42893696626634553
v 0.42893757234923374 0.028678333673973433 0.24753599117233224
v 0.4288406237946534 1.971320677058444 0.24770245667994348
v 0.4954823662009603 0.028346168365281366 -0.00012401574814167703
v 0.4952388663923878 1.9713206274598867 0.00009628956538471717
v 0.42883283871245 0.02869243187129933 -0.24769763419235266
v 0.42892633887213544 1.971328176976596 -0.24752888950136936
v 0.24753228897394344 0.028686135431991833 -0.42893340202782526
v 0.2476956805795097 1.970841176776851 -0.42909501667355476
v 0.0000367956916384906 0.0291590451368835 -0.4954567321554936
v 0.00009605685023245602 1.9712936585068674 -0.49526169513271906
v -0.24766054795018963 0.02882609856020324 -0.428722441641196
v -0.24731948659526723 1.9722303661295761 -0.4286121745063669
v -0.427823477307544 0.02604549335690154 -0.24747430449394292
v -0.42825016760978935 1.9739277847440575 -0.2467847093791272
v -0.49546077284537965 0.028413860273984293 -0.0002081669710286553
v -0.4951276865873078 1.9711663934089514 -0.0001185533957331409
v -0.4292867371758538 0.02947538269430705 0.24767443393413116
v -0.4289369646367206 1.9713206844301512 0.24753566554907513
v -0.24752401410237493 0.02866614111476673 0.4289187082184255
v -0.24770247522527059 1.9713206844326199 0.4288406570304031
v 0 2 0.475
v 0.23749999999999996 2 0.4113620667976084
v 0 2 0
v -0.2375000000000002 2 0.41136206679760823
v -0.41136206679760834 2 0.23750000000000004
v -0.475 2 -8.725608443924891e-17
v -0.4113620667976083 2 -0.2375000000000002
v -0.23750000000000004 2 -0.41136206679760834
v 5.817072295949927e-17 2 -0.475
v 0.23749999999999996 2 -0.4113620667976084
v 0.4113620667976084 2 -0.2374999999999999
v 0.41136206679760834 2 0.23750000000000004
v 0.475 2 2.9085361479749636e-17
v 0.24999999999999997 0.09999999999999987 0.43301270189221935
v 0.4330127018922193 0.09999999999999987 0.25000000000000006
v 0.4330127018922193 1.9 0.25000000000000006
v 0.24999999999999997 1.9 0.43301270189221935
v 0.5 0.09999999999999987 3.061616997868383e-17
v 0.5 1.9 3.061616997868383e-17
v 0.43301270189221935 0.09999999999999987 -0.2499999999999999
v 0.43301270189221935 1.9 -0.2499999999999999
v 0.24999999999999997 0.09999999999999987 -0.43301270189221935
v 0.24999999999999997 1.9 -0.43301270189221935
v 6.123233995736766e-17 0.09999999999999987 -0.5
v 6.123233995736766e-17 1.9 -0.5
v -0.25000000000000006 0.09999999999999987 -0.4330127018922193
v -0.25000000000000006 1.9 -0.4330127018922193
v -0.43301270189221924 0.09999999999999987 -0.2500000000000002
v -0.43301270189221924 1.9 -0.2500000000000002
v -0.5 0.09999999999999987 -9.184850993605148e-17
v -0.5 1.9 -9.184850993605148e-17
v -0.4330127018922193 0.09999999999999987 0.25000000000000006
v -0.4330127018922193 1.9 0.25000000000000006
v -0.2500000000000002 0.09999999999999987 0.4330127018922192
v -0.2500000000000002 1.9 0.4330127018922192
v 0 0.09999999999999987 0.5
v 0 1.9 0.5
v -0.4113620667976083 0 -0.2375000000000002
v -0.23750000000000004 0 -0.41136206679760834
v 0 0 0
v -0.475 0 -8.725608443924891e-17
v -0.2375000000000002 0 0.41136206679760823
v -0.41136206679760834 0 0.23750000000000004
v 0 0 0.475
v 0.475 0 2.9085361479749636e-17
v 0.41136206679760834 0 0.23750000000000004
v 0.23749999999999996 0 -0.4113620667976084
v 0.4113620667976084 0 -0.2374999999999999
v 5.817072295949927e-17 0 -0.475
v 0.23749999999999996 0 0.4113620667976084
vt 0.3578125 0.9920453125
vt 0.3875 1
vt 0.3875 0.940625
vt 0.578125 0.3515625
vt 0.546875 0.3515625
vt 0.546875 0.578125
vt 0.578125 0.578125
vt 0.3875 0.75625
vt 0.3578125 0.7642046875
vt 0.3875 0.815625
vt 0.3360796875 0.9703125
vt 0.3578125 0.9920453125
vt 0.3875 0.940625
vt 0.03125 0.2109375
vt 0 0.2109375
vt 0 0.4375
vt 0.03125 0.4375
vt 0.3578125 0.7642046875
vt 0.3360796875 0.7859375
vt 0.3875 0.815625
vt 0.328125 0.940625
vt 0.3360796875 0.9703125
vt 0.3875 0.940625
vt 0.0625 0.2109375
vt 0.03125 0.2109375
vt 0.03125 0.4375
vt 0.0625 0.4375
vt 0.3360796875 0.7859375
vt 0.328125 0.815625
vt 0.3875 0.815625
vt 0.3360796875 0.9109375
vt 0.328125 0.940625
vt 0.3875 0.940625
vt 0.09375 0.2109375
vt 0.0625 0.2109375
vt 0.0625 0.4375
vt 0.09375 0.4375
vt 0.328125 0.815625
vt 0.3360796875 0.8453125
vt 0.3875 0.815625
vt 0.3578125 0.8892046875
vt 0.3360796875 0.9109375
vt 0.3875 0.940625
vt 0.125 0.2109375
vt 0.09375 0.2109375
vt 0.09375 0.4375
vt 0.125 0.4375
vt 0.3360796875 0.8453125
vt 0.3578125 0.8670453124999999
vt 0.3875 0.815625
vt 0.3875 0.88125
vt 0.3578125 0.8892046875
vt 0.3875 0.940625
vt 0.15625 0.2109375
vt 0.125 0.2109375
vt 0.125 0.4375
vt 0.15625 0.4375
vt 0.3578125 0.8670453124999999
vt 0.3875 0.875
vt 0.3875 0.815625
vt 0.4171875 0.8892046875
vt 0.3875 0.88125
vt 0.3875 0.940625
vt 0.1875 0.2109375
vt 0.15625 0.2109375
vt 0.15625 0.4375
vt 0.1875 0.4375
vt 0.3875 0.875
vt 0.4171875 0.8670453124999999
vt 0.3875 0.815625
vt 0.43892031249999997 0.9109375
vt 0.4171875 0.8892046875
vt 0.3875 0.940625
vt 0.21875 0.2109375
vt 0.1875 0.2109375
vt 0.1875 0.4375
vt 0.21875 0.4375
vt 0.4171875 0.8670453124999999
vt 0.43892031249999997 0.8453125
vt 0.3875 0.815625
vt 0.446875 0.940625
vt 0.43892031249999997 0.9109375
vt 0.3875 0.940625
vt 0.25 0.2109375
vt 0.21875 0.2109375
vt 0.21875 0.4375
vt 0.25 0.4375
vt 0.43892031249999997 0.8453125
vt 0.446875 0.815625
vt 0.3875 0.815625
vt 0.43892031249999997 0.9703125
vt 0.446875 0.940625
vt 0.3875 0.940625
vt 0.28125 0.2109375
vt 0.25 0.2109375
vt 0.25 0.4375
vt 0.28125 0.4375
vt 0.446875 0.815625
vt 0.43892031249999997 0.7859375
vt 0.3875 0.815625
vt 0.4171875 0.9920453125
vt 0.43892031249999997 0.9703125
vt 0.3875 0.940625
vt 0.3125 0.2109375
vt 0.28125 0.2109375
vt 0.28125 0.4375
vt 0.3125 0.4375
vt 0.43892031249999997 0.7859375
vt 0.4171875 0.7642046875
vt 0.3875 0.815625
vt 0.3875 1
vt 0.4171875 0.9920453125
vt 0.3875 0.940625
vt 0.609375 0.3515625
vt 0.578125 0.3515625
vt 0.578125 0.578125
vt 0.609375 0.578125
vt 0.4171875 0.7642046875
vt 0.3875 0.75625
vt 0.3875 0.815625
vt 0.68814296875 0.3046875
vt 0.71887734375 0.3046875
vt 0.71954375 0.296875
vt 0.6875 0.296875
vt 0.43814296875000003 0.296875
vt 0.46887734375 0.296875
vt 0.46954375 0.2890625
vt 0.4375 0.2890625
vt 0.55533046875 0.296875
vt 0.58606484375 0.296875
vt 0.58673125 0.2890625
vt 0.5546875 0.2890625
vt 0.64908046875 0.296875
vt 0.67981484375 0.296875
vt 0.68048125 0.2890625
vt 0.6484375 0.2890625
vt 0.71160390625 0.9453125
vt 0.74233828125 0.9453125
vt 0.7430046875 0.94097734375
vt 0.7109375 0.94091015625
vt 0.71158125 0.9375
vt 0.742315625 0.9375
vt 0.7429734375 0.933096875
vt 0.7109375 0.93315546875
vt 0.71156484375 0.9296875
vt 0.74229921875 0.9296875
vt 0.74296640625 0.925346875
vt 0.7109375 0.9254671875
vt 0.711609375 0.90625
vt 0.74234375 0.90625
vt 0.74300078125 0.9020343749999999
vt 0.7109375 0.90225390625
vt 0.71157421875 0.9140625
vt 0.74230859375 0.9140625
vt 0.74288359375 0.91005078125
vt 0.7109375 0.90971484375
vt 0.71158046875 0.9765625
vt 0.74231484375 0.9765625
vt 0.74298046875 0.96875
vt 0.7109375 0.96875
vt 0.68814296875 0.296875
vt 0.71887734375 0.296875
vt 0.71954375 0.2890625
vt 0.6875 0.2890625
vt 0.71158046875 1
vt 0.74231484375 1
vt 0.74298125 0.9921875
vt 0.7109375 0.9921875
vt 0.6484375 0.34375
vt 0.680790625 0.34375
vt 0.68063359375 0.33473671875
vt 0.64858125 0.3348203125
vt 0.704228125 0.90625
vt 0.671875 0.90625
vt 0.67204140625 0.9140625
vt 0.70408515625 0.9140625
vt 0.671875 0.90625
vt 0.704228125 0.90625
vt 0.70406171875 0.8984375
vt 0.67201796875 0.8984375
vt 0.704228125 0.890625
vt 0.671875 0.890625
vt 0.67204140625 0.8984375
vt 0.70408515625 0.8984375
vt 0.5546875 0.3359375
vt 0.587040625 0.3359375
vt 0.58687421875 0.32700390625
vt 0.55481875 0.3269640625
vt 0.680790625 0.3203125
vt 0.6484375 0.3203125
vt 0.64860390625 0.328125
vt 0.68064765625 0.328125
vt 0.671875 1
vt 0.704228125 1
vt 0.7040664062499999 0.9910265625
vt 0.67201796875 0.99106796875
vt 0.587040625 0.3125
vt 0.5546875 0.3125
vt 0.55485390625 0.3203125
vt 0.58689765625 0.3203125
vt 0.6484375 0.3203125
vt 0.680790625 0.3203125
vt 0.68062421875 0.3125
vt 0.64858046875 0.3125
vt 0.469853125 0.3046875
vt 0.4375 0.3046875
vt 0.43764296875 0.31243750000000003
vt 0.46971015625 0.3125
vt 0.671875 0.953125
vt 0.704228125 0.953125
vt 0.70406171875 0.9441921875
vt 0.6720265625 0.94425234375
vt 0.587040625 0.3046875
vt 0.5546875 0.3046875
vt 0.554853125 0.3125
vt 0.5868890625000001 0.31244218749999997
vt 0.671875 0.9375
vt 0.704228125 0.9375
vt 0.70408515625 0.928628125
vt 0.67201875 0.92858359375
vt 0.680790625 0.3046875
vt 0.6484375 0.3046875
vt 0.64861953125 0.3125
vt 0.6806484375 0.31238046875000003
vt 0.65625 0.4296875
vt 0.688603125 0.4296875
vt 0.68843046875 0.420771875
vt 0.6564859375 0.42041874999999995
vt 0.719853125 0.3359375
vt 0.6875 0.3359375
vt 0.6876375 0.34375
vt 0.71970078125 0.3435328125
vt 0.5546875 0.3515625
vt 0.587040625 0.3515625
vt 0.586903125 0.34229140625
vt 0.55486015625 0.34259921875
vt 0.719853125 0.328125
vt 0.6875 0.328125
vt 0.68767265625 0.33558671875
vt 0.71961875 0.3359375
vt 0.671875 0.984375
vt 0.704228125 0.984375
vt 0.70410625 0.975409375
vt 0.6720359375 0.97554375
vt 0.719853125 0.3203125
vt 0.6875 0.3203125
vt 0.68766640625 0.328125
vt 0.719709375 0.32810703125000007
vt 0.671875 0.96875
vt 0.704228125 0.96875
vt 0.70410390625 0.95991796875
vt 0.67201875 0.9598140625
vt 0.719853125 0.3125
vt 0.6875 0.3125
vt 0.68766640625 0.3203125
vt 0.71971015625 0.3203125
vt 0.65625 0.4140625
vt 0.688603125 0.4140625
vt 0.6884359375 0.40512734375000004
vt 0.6563703125 0.40504843749999997
vt 0.719853125 0.3046875
vt 0.6875 0.3046875
vt 0.68766640625 0.3125
vt 0.71971015625 0.3125
vt 0.7267125 0.3984375
vt 0.695978125 0.3984375
vt 0.6953125 0.40625
vt 0.72736484375 0.4062171875
vt 0.74233828125 0.984375
vt 0.71160390625 0.984375
vt 0.7109375 0.9921875
vt 0.74298125 0.9921875
vt 0.726725 0.40625
vt 0.695990625 0.40625
vt 0.6953125 0.41404140624999997
vt 0.72736796875 0.4140625
vt 0.67983828125 0.296875
vt 0.64910390625 0.296875
vt 0.6484375 0.3046875
vt 0.6804859375 0.30467265624999995
vt 0.74233828125 0.9765625
vt 0.71160390625 0.9765625
vt 0.7109375 0.984375
vt 0.74298125 0.984375
vt 0.7423296875000001 0.953125
vt 0.7115953125 0.953125
vt 0.7109375 0.9609375
vt 0.74297265625 0.96087421875
vt 0.7267125 0.421875
vt 0.695978125 0.421875
vt 0.6953125 0.42962890625000005
vt 0.72737890625 0.4296875
vt 0.7422453125 0.9453125
vt 0.7115109375 0.9453125
vt 0.7109375 0.95278671875
vt 0.74288203125 0.953125
vt 0.74230859375 0.9609375
vt 0.71157421875 0.9609375
vt 0.7109375 0.96875
vt 0.74298046875 0.96841171875
vt 0.5860703125 0.296875
vt 0.5553359375 0.296875
vt 0.5546875 0.3046875
vt 0.5867578125 0.3045609375
vt 0.4689 0.296875
vt 0.438165625 0.296875
vt 0.4375 0.30457812500000003
vt 0.46958515624999997 0.3046875
vt 0.7267359375 0.4140625
vt 0.6960015625 0.4140625
vt 0.6953125 0.42183984375000005
vt 0.727378125 0.421875
vn 0 -1 0
vn 0.2588190451025207 0 0.9659258262890683
vn 0 1 0
vn 0 -1 0
vn 0.7071067811865475 0 0.7071067811865477
vn 0 1 0
vn 0 -1 0
vn 0.9659258262890683 0 0.25881904510252085
vn 0 1 0
vn 0 -1 0
vn 0.9659258262890683 0 -0.25881904510252074
vn 0 1 0
vn 0 -1 0
vn 0.7071067811865477 0 -0.7071067811865475
vn 0 1 0
vn 0 -1 0
vn 0.25881904510252074 0 -0.9659258262890683
vn 0 1 0
vn 0 -1 0
vn -0.25881904510252074 0 -0.9659258262890683
vn 0 1 0
vn 0 -1 0
vn -0.7071067811865474 0 -0.7071067811865477
vn 0 1 0
vn 0 -1 0
vn -0.9659258262890683 0 -0.25881904510252096
vn 0 1 0
vn 0 -1 0
vn -0.9659258262890683 0 0.2588190451025207
vn 0 1 0
vn 0 -1 0
vn -0.7071067811865477 0 0.7071067811865475
vn 0 1 0
vn 0 -1 0
vn -0.2588190451025211 0 0.9659258262890682
vn 0 1 0
vn 0.2139490879930687 0.5627372893104425 0.7984688666231574
vn 0.5845197557653217 0.5627373368100763 0.5845197557653218
vn 0.798469407988482 0.5627364660151417 0.21394923305147034
vn 0.7984602295017467 0.5627504241975289 -0.21394677368336176
vn 0.5845880985205814 0.5625953342644981 -0.5845880985205812
vn 0.21423062402299173 0.5611360721744832 -0.7995195733909913
vn -0.21393376823940183 0.5628242283765612 -0.798411692524113
vn -0.5822010126990643 0.5675244150028858 -0.5822010126990648
vn -0.7846844116315571 0.583149188443399 -0.21025555440996643
vn -0.8012695960281634 0.5584542429778423 0.2146995411753582
vn -0.5845197775237642 0.5627372916087389 0.5845197775237639
vn -0.2139490875673765 0.562737291726506 0.7984688650344512
vn 0.2584036754355387 -0.056631746557855564 0.9643756455879687
vn 0.2582882607735317 0.06401078487153436 0.9639449122054199
vn 0.7056441610015213 -0.06428558227875115 0.7056441610015214
vn 0.705656626814496 0.064011327634835 0.7056566268144961
vn 0.9639455444788891 -0.06400057897334686 0.2582884301906973
vn 0.9639455084970134 0.06400115982182969 0.2582884205493827
vn 0.9641657008935128 -0.06034162180728334 -0.25834742092420415
vn 0.9639349386061372 0.06417155898179579 -0.2582855883556583
vn 0.7056504531844799 -0.06414729800293142 -0.7056504531844795
vn 0.7057470282010645 0.06198600140944742 -0.7057470282010643
vn 0.2582871602101571 -0.06407704441929289 -0.9639408048469889
vn 0.25829309855766674 0.06371870503440066 -0.9639629670616079
vn -0.2583217074318487 -0.06196319868344245 -0.9640697368336022
vn -0.2582147873834576 0.06829271115369918 -0.9636707057806589
vn -0.7055779393332017 -0.06572323069223601 -0.7055779393332021
vn -0.7050570963074724 0.0760853592549226 -0.7050570963074728
vn -0.9631032431995853 -0.07639219267145331 -0.25806273624312426
vn -0.9638478664657139 0.06555834568088285 -0.25826225744594883
vn -0.9640745741800176 -0.06188247921115973 0.25832300359491417
vn -0.9639449105942833 0.06401081087574804 0.25828826034182895
vn -0.70580877452542 -0.06056358316554712 0.7058087745254197
vn -0.7056566502552699 0.06401081081367258 0.7056566502552696
vn -0.2582836697237709 -0.0642867359389766 0.9639277781744514
vn -0.25828826032098223 0.06401081213149634 0.9639449105164811
vn 0.21407263611591953 -0.5620354386311343 0.7989299544948165
vn 0.5845071826253935 -0.5627634555642804 0.5845071826253936
vn 0.7924971711496854 -0.5717133422276092 0.21234897701350738
vn 0.7986984292053079 -0.562388017881926 -0.21401059910156833
vn 0.584610292013929 -0.5625492093521932 -0.5846102920139289
vn 0.2142254769933523 -0.5611654054799379 -0.7995003644148687
vn -0.2147255435866885 -0.55830498105752 -0.8013666383483674
vn -0.5744670649225346 -0.5830739083843287 -0.574467064922535
vn -0.7922623576059771 -0.5720620472565354 -0.21228605891409896
vn -0.7999594382515288 -0.5604637579135012 0.21434848545715157
vn -0.58463530127051 -0.5624972257857633 0.5846353012705099
vn -0.21068051417774183 -0.58085506423136 0.7862703830760671
usemtl m_1
f 74/1/1 68/2/1 64/3/1
f 60/4/2 38/5/2 41/6/2 61/7/2
f 25/8/3 26/9/3 27/10/3
f 70/11/4 74/12/4 64/13/4
f 38/14/5 39/15/5 40/16/5 41/17/5
f 26/18/6 36/19/6 27/20/6
f 69/21/7 70/22/7 64/23/7
f 39/24/8 42/25/8 43/26/8 40/27/8
f 36/28/9 37/29/9 27/30/9
f 72/31/10 69/32/10 64/33/10
f 42/34/11 44/35/11 45/36/11 43/37/11
f 37/38/12 35/39/12 27/40/12
f 71/41/13 72/42/13 64/43/13
f 44/44/14 46/45/14 47/46/14 45/47/14
f 35/48/15 34/49/15 27/50/15
f 73/51/16 71/52/16 64/53/16
f 46/54/17 48/55/17 49/56/17 47/57/17
f 34/58/18 33/59/18 27/60/18
f 63/61/19 73/62/19 64/63/19
f 48/64/20 50/65/20 51/66/20 49/67/20
f 33/68/21 32/69/21 27/70/21
f 62/71/22 63/72/22 64/73/22
f 50/74/23 52/75/23 53/76/23 51/77/23
f 32/78/24 31/79/24 27/80/24
f 65/81/25 62/82/25 64/83/25
f 52/84/26 54/85/26 55/86/26 53/87/26
f 31/88/27 30/89/27 27/90/27
f 67/91/28 65/92/28 64/93/28
f 54/94/29 56/95/29 57/96/29 55/97/29
f 30/98/30 29/99/30 27/100/30
f 66/101/31 67/102/31 64/103/31
f 56/104/32 58/105/32 59/106/32 57/107/32
f 29/108/33 28/109/33 27/110/33
f 68/111/34 66/112/34 64/113/34
f 58/114/35 60/115/35 61/116/35 59/117/35
f 28/118/36 25/119/36 27/120/36
f 26/121/37 25/122/37 2/123/37 4/124/37
f 36/125/38 26/126/38 4/127/38 6/128/38
f 37/129/39 36/130/39 6/131/39 8/132/39
f 35/133/40 37/134/40 8/135/40 10/136/40
f 34/137/41 35/138/41 10/139/41 12/140/41
f 33/141/42 34/142/42 12/143/42 14/144/42
f 32/145/43 33/146/43 14/147/43 16/148/43
f 31/149/44 32/150/44 16/151/44 18/152/44
f 30/153/45 31/154/45 18/155/45 20/156/45
f 29/157/46 30/158/46 20/159/46 22/160/46
f 28/161/47 29/162/47 22/163/47 24/164/47
f 25/165/48 28/166/48 24/167/48 2/168/48
f 38/169/49 60/170/49 1/171/49 3/172/49
f 61/173/50 41/174/50 4/175/50 2/176/50
f 39/177/51 38/178/51 3/179/51 5/180/51
f 41/181/52 40/182/52 6/183/52 4/184/52
f 42/185/53 39/186/53 5/187/53 7/188/53
f 40/189/54 43/190/54 8/191/54 6/192/54
f 44/193/55 42/194/55 7/195/55 9/196/55
f 43/197/56 45/198/56 10/199/56 8/200/56
f 46/201/57 44/202/57 9/203/57 11/204/57
f 45/205/58 47/206/58 12/207/58 10/208/58
f 48/209/59 46/210/59 11/211/59 13/212/59
f 47/213/60 49/214/60 14/215/60 12/216/60
f 50/217/61 48/218/61 13/219/61 15/220/61
f 49/221/62 51/222/62 16/223/62 14/224/62
f 52/225/63 50/226/63 15/227/63 17/228/63
f 51/229/64 53/230/64 18/231/64 16/232/64
f 54/233/65 52/234/65 17/235/65 19/236/65
f 53/237/66 55/238/66 20/239/66 18/240/66
f 56/241/67 54/242/67 19/243/67 21/244/67
f 55/245/68 57/246/68 22/247/68 20/248/68
f 58/249/69 56/250/69 21/251/69 23/252/69
f 57/253/70 59/254/70 24/255/70 22/256/70
f 60/257/71 58/258/71 23/259/71 1/260/71
f 59/261/72 61/262/72 2/263/72 24/264/72
f 68/265/73 74/266/73 3/267/73 1/268/73
f 74/269/74 70/270/74 5/271/74 3/272/74
f 70/273/75 69/274/75 7/275/75 5/276/75
f 69/277/76 72/278/76 9/279/76 7/280/76
f 72/281/77 71/282/77 11/283/77 9/284/77
f 71/285/78 73/286/78 13/287/78 11/288/78
f 73/289/79 63/290/79 15/291/79 13/292/79
f 63/293/80 62/294/80 17/295/80 15/296/80
f 62/297/81 65/298/81 19/299/81 17/300/81
f 65/301/82 67/302/82 21/303/82 19/304/82
f 67/305/83 66/306/83 23/307/83 21/308/83
f 66/309/84 68/310/84 1/311/84 23/312/84